# xmcd
#
# Track frame offsets:
#	150
#	12807
#	28767
#	41287
#	51590
#	61942
#	71632
#	83135
#	92867
#	105957
#
# Disc length: 1578 seconds
#
# Revision: 2
# Processed by: cddbd v1.5.2PL0 Copyright (c) Steve Scherf et al.
# Submitted via: audiograbber 1.83.01
#
DISCID=7906280a
DTITLE=Dalida - Dalida Internationale
DYEAR=1960
DGENRE=Variété Française
TTITLE0=Garde Moi La Derniere Dance
TTITLE1=Dix Mille Bulles Bleues
TTITLE2=Parlez Mio D'amour
TTITLE3=Je Me Sens Vivre
TTITLE4=Itsi Bitsi Petit Bikini
TTITLE5=Pepe
TTITLE6=La Joie D'amour
TTITLE7=24 Mille Baissers
TTITLE8=O Sole Mio
TTITLE9=Les Marrons Chauds
EXTD=YEAR: 1960
EXTT0=
EXTT1=
EXTT2=
EXTT3=
EXTT4=
EXTT5=
EXTT6=
EXTT7=
EXTT8=
EXTT9=
PLAYORDER=
